<?xml version="1.0" encoding="UTF-8"?> <!-- Generator: Adobe Illustrator 23.0.3, SVG Export Plug-In . SVG Version: 6.00 Build 0) --> <svg xmlns="http://www.w3.org/2000/svg" xmlns:xlink="http://www.w3.org/1999/xlink" id="Layer_1" x="0px" y="0px" viewBox="0 0 970.25 183.75" style="enable-background:new 0 0 970.25 183.75;" xml:space="preserve"> <style type="text/css"> .st0{fill:#FFFFFF;} .st1{fill:#51364C;} </style> <path class="st0" d="M476.74,86.71c-1.59-2.07-2.92-3.75-4.21-5.47c-16.27-21.75-32.52-43.51-48.79-65.26 c-3.9-5.22-6.94-5.39-11.67-0.69c-3.67,3.64-7.2,7.43-11.02,10.9c-2.54,2.31-3.52,4.81-3.51,8.28c0.11,44.33,0.07,88.66,0.07,133 c0,1.62,0,3.25,0,5.02c10.49,0.86,20.48,2.55,27.25-7.79c1.7-2.6,4.65-4.35,6.52-6.86c1.36-1.84,2.64-4.28,2.67-6.47 c0.21-14.16,0.06-28.33,0.03-42.5c-0.01-4.42,0-8.85,0-14.58c2.15,2.69,3.49,4.29,4.74,5.96c9.32,12.38,18.61,24.78,27.94,37.15 c4.21,5.59,5.48,5.59,9.57-0.01c11.6-15.87,23.17-31.76,34.78-47.63c0.72-0.98,1.57-1.86,3.19-3.78c0,29.66,0,58.05,0,86.39 c10.95,1.52,21.05,2.09,27.89-8.39c1.43-2.19,4.05-3.6,5.47-5.79c1.5-2.34,3.14-5.18,3.15-7.81c0.19-44.33,0.14-88.66,0.14-133 c0-1.59,0-3.19,0-5.81c-3.19,0.81-5.87,0.82-7.73,2.06c-14.69,9.79-29.42,19.54-38.61,35.41c-2.49,4.3-5.87,8.08-8.85,12.09 C489.5,69.54,483.25,77.94,476.74,86.71z M114.59,62.48c5.48-5.13,10.81-10.12,16.14-15.1c0.73-0.68,1.53-1.31,2.17-2.07 c3.53-4.22,3.23-6.7-1.61-9.3c-5.26-2.84-10.57-5.71-16.15-7.81c-15.18-5.72-30.77-7.71-46.44-2.21 C44.3,34.55,31.38,52.45,28.8,77.74c-3.06,29.95,13.06,58.67,44.5,66.27c32.31,7.8,60.33-7.91,68.59-37.97 c0.33-1.22,0.4-2.51,0.69-4.41c-18.05,0-35.62,0-53.36,0c0-2.49,0-4.39,0-6.36c20.69,0,41.05,0,61.44,0 c-3.37,41.41-44.26,67.78-84.27,54.12c-27.21-9.29-42.06-29.19-45.74-57.54C16.96,63.2,33.85,33.39,60.31,21.96 c25.44-11,49.46-6.59,72.56,6.99c1.62,0.95,3.18,2,4.78,3.02c2.11-3.55,2.48-5.73-1.16-7.95C106.37,5.65,65.92,3.9,36.56,30.09 C14.17,50.06-0.42,73.58,0.01,104.65c0.63,46.26,44,80.3,88.95,69.12c26.53-6.6,44.39-24.73,57.91-47.46 c6.6-11.11,9.49-23.52,10.25-36.85c-18.27,0-36.07,0-53.88,0c-19.3,0-19.31-0.01-32.31,13.98c-0.87,0.94-2.02,2.14-2.06,3.25 c-0.21,5.59-0.1,11.19-0.1,17.38c19.17,0,37.71,0,57.82,0c-3.02,2.82-4.75,4.79-6.82,6.3c-17.12,12.54-45.11,12.54-62.54,0.08 C37.4,116.27,29.08,88.03,38.08,65.24c3.62-9.16,10.24-15.51,19.83-17.29c7.25-1.35,14.93-1.6,22.28-0.9 C93.11,48.26,104.28,54.26,114.59,62.48z M923.89,121.6c2.31-1.95,4.32-3.4,6.04-5.13c7.04-7.07,14.6-13.73,20.85-21.44 c18.12-22.36,16.48-67.93-26.79-78.67c-10.02-2.49-20.87-1.42-31.2-2.95c-14.4-2.13-25.34,2.56-33.99,14.09 c-2.09,2.79-3.59,5.07-3.58,8.73c0.13,43.65,0.08,87.29,0.08,130.94c0,1.78,0,3.56,0,6.36c7.34-0.67,14-1.27,20.67-1.87 c6.27-8.48,19.24-12.7,15.98-28.04c8.75,7.23,16.72,12.99,23.68,19.79c7.67,7.48,16.07,11.3,26.77,9.54c2.1-0.35,4.94,0.27,6.22-0.9 c5.85-5.29,11.26-11.07,17.05-16.88C951.46,143.75,937.88,132.84,923.89,121.6z M249.72,172.9c8.03,0,15.3,0.03,22.58-0.04 c0.75-0.01,1.73-0.39,2.21-0.94c6.88-7.93,16.8-13.46,19.66-24.56c0.71-2.77,2.47-2.99,4.84-2.98c14.49,0.07,28.98,0.15,43.46-0.05 c3.29-0.05,4.65,1.15,5.64,4.09c2.39,7.1,4.93,14.16,7.81,21.07c0.63,1.51,2.82,3.04,4.49,3.32c8,1.33,15-0.26,20.01-7.51 c1.86-2.7,4.47-4.95,6.99-7.11c2.36-2.03,2.74-3.92,1.57-6.9c-17.82-45.53-35.51-91.1-53.25-136.66c-2.11-5.41-5.3-6.01-9.58-1.79 c-5.45,5.38-10.97,10.71-16.17,16.33c-2.54,2.74-5.11,5.81-6.49,9.22c-17.4,43.02-34.58,86.12-51.81,129.2 C251.1,169.07,250.57,170.59,249.72,172.9z M560.71,102.2c0.11,1.83,0.24,3.66,0.33,5.49c2.33,48.28,52.08,80.26,98.25,63.49 c21.45-7.79,36.26-23.79,49.04-41.84c10.96-15.48,15.81-32.7,14.2-51.83c-3.85-45.85-47.98-77.01-92.48-64.91 c-26.78,7.28-44.78,25.44-58.38,48.54C564.27,73.72,560.72,87.54,560.71,102.2z M836.56,13.81c0,2.45,0,4.26,0,6.07 c0,28.49,0.06,56.98-0.06,85.46c-0.02,4.97-0.3,10.04-1.33,14.88c-6.46,30.46-42.25,42.81-66.14,22.81 c-10.58-8.86-14.44-21-14.54-34.28c-0.23-29.65-0.08-59.31-0.08-88.96c0-1.95,0-3.9,0-7.63c-3.65,1.75-6.5,2.48-8.48,4.2 c-4.39,3.82-8.48,8.01-12.4,12.32c-1.31,1.44-2.47,3.68-2.48,5.55c-0.1,30.65-0.75,61.33,0.25,91.95 c1.15,35.52,32.24,55.67,66.34,44.8c24.47-7.8,44.65-36.87,44.75-62.56c0.12-29.99,0.05-59.97,0.04-89.96 c0-1.59-0.17-3.17-0.27-4.96C840.1,13.61,838.65,13.69,836.56,13.81z M189.85,12.37c-3.53,1.57-6.41,2.18-8.37,3.85 c-4.17,3.55-7.74,7.81-11.81,11.49c-2.57,2.32-3.48,4.82-3.48,8.27c0.11,43.65,0.07,87.3,0.08,130.94c0,1.61,0.16,3.22,0.27,5.37 c2.14,0,3.93,0,5.72,0c13.16,0,26.44-1.1,39.45,0.29c14.96,1.6,26.09-3.12,34.52-15.08c1.42-2.02,2.05-4.6,3.52-8.04 c-20.93,0-40.16,0-59.89,0C189.85,103.95,189.85,59.04,189.85,12.37z M762.3,13.84c-0.13,1.54-0.33,2.84-0.33,4.13 c-0.01,29.65-0.06,59.3,0.06,88.95c0.02,4.46,0.35,9.06,1.47,13.35c3.65,14,12.18,22.78,27.14,24.83 c12.73,1.74,25.88-3.78,32.69-14.7c4.76-7.62,5.84-16.17,5.84-24.95c-0.01-28.98,0-57.97-0.01-86.95c0-1.46-0.16-2.92-0.34-5.99 c-3.22,1.44-6.1,2.04-8.05,3.72c-4.15,3.57-7.7,7.85-11.75,11.56c-2.57,2.35-3.39,4.93-3.37,8.35c0.12,25.32,0.15,50.64-0.01,75.96 c-0.04,5.79-0.42,11.68-1.54,17.34c-1.43,7.18-6.71,10.52-14.02,9.73c-10.25-1.1-16.95-7.05-19.75-16.56 c-1.75-5.95-2.32-12.43-2.38-18.68c-0.24-27.98-0.11-55.97-0.11-83.95c0-1.96,0-3.91,0-6.13C765.69,13.84,764.13,13.84,762.3,13.84z M203.19,137.48c0-41.55,0-82.47,0-123.56c-2.14,0-3.83,0-5.48,0c0,43.24,0,86.1,0,128.88c17.13,0,33.84,0,50.97,0 c-0.13-2-0.23-3.53-0.34-5.32C233.24,137.48,218.61,137.48,203.19,137.48z"></path> <path class="st1" d="M476.74,86.71c6.51-8.77,12.76-17.17,19-25.58c2.98-4.01,6.36-7.79,8.85-12.09 c9.19-15.87,23.92-25.63,38.61-35.41c1.86-1.24,4.53-1.25,7.73-2.06c0,2.63,0,4.22,0,5.81c0,44.33,0.05,88.66-0.14,133 c-0.01,2.63-1.64,5.47-3.15,7.81c-1.41,2.19-4.04,3.6-5.47,5.79c-6.84,10.48-16.94,9.91-27.89,8.39c0-28.34,0-56.73,0-86.39 c-1.63,1.91-2.48,2.8-3.19,3.78c-11.6,15.87-23.18,31.76-34.78,47.63c-4.09,5.59-5.36,5.6-9.57,0.01 c-9.32-12.37-18.62-24.77-27.94-37.15c-1.25-1.67-2.6-3.27-4.74-5.96c0,5.73-0.01,10.15,0,14.58c0.03,14.17,0.18,28.33-0.03,42.5 c-0.03,2.19-1.31,4.64-2.67,6.47c-1.87,2.52-4.82,4.27-6.52,6.86c-6.77,10.34-16.77,8.65-27.25,7.79c0-1.78,0-3.4,0-5.02 c0-44.33,0.04-88.66-0.07-133c-0.01-3.47,0.96-5.97,3.51-8.28c3.82-3.47,7.35-7.26,11.02-10.9c4.74-4.7,7.77-4.53,11.67,0.69 c16.27,21.75,32.52,43.51,48.79,65.26C473.81,82.96,475.14,84.64,476.74,86.71z M544.68,149.36c0-42.38,0-84.25,0-127.59 c-20.85,28.59-40.87,56.05-61.3,84.06c-20.64-28.04-40.88-55.54-61.83-84.01c0,43.41,0,85.44,0,127.58c2.24,0,4.17,0,6.87,0 c0-34.85,0-69.43,0-104.02c0.34-0.05,0.67-0.11,1.01-0.16c17.87,24.13,35.73,48.27,53.85,72.74c18.12-24.64,35.76-48.63,53.4-72.62 c0.42,0.17,0.84,0.35,1.27,0.52c0,34.39,0,68.79,0,103.48C540.42,149.36,542.34,149.36,544.68,149.36z"></path> <path class="st1" d="M114.59,62.48c-10.32-8.22-21.49-14.22-34.39-15.44c-7.35-0.69-15.03-0.44-22.28,0.9 c-9.59,1.78-16.22,8.13-19.83,17.29c-9,22.8-0.68,51.04,19.15,65.21c17.43,12.46,45.42,12.46,62.54-0.08 c2.06-1.51,3.79-3.48,6.82-6.3c-20.12,0-38.66,0-57.82,0c0-6.19-0.11-11.79,0.1-17.38c0.04-1.11,1.19-2.31,2.06-3.25 c13-13.99,13.01-13.98,32.31-13.98c17.8,0,35.6,0,53.88,0c-0.76,13.34-3.65,25.75-10.25,36.85c-13.52,22.73-31.38,40.86-57.91,47.46 c-44.95,11.18-88.32-22.86-88.95-69.12c-0.43-31.07,14.16-54.6,36.55-74.57C65.92,3.9,106.37,5.65,136.5,24.02 c3.64,2.22,3.27,4.4,1.16,7.95c-1.61-1.02-3.16-2.07-4.78-3.02c-23.1-13.59-47.12-17.99-72.56-6.99 C33.85,33.39,16.96,63.2,20.67,91.84c3.67,28.35,18.53,48.25,45.74,57.54c40.01,13.66,80.9-12.7,84.27-54.12 c-20.39,0-40.75,0-61.44,0c0,1.97,0,3.87,0,6.36c17.74,0,35.31,0,53.36,0c-0.29,1.9-0.36,3.19-0.69,4.41 c-8.26,30.06-36.28,45.77-68.59,37.97c-31.44-7.59-47.57-36.32-44.5-66.27C31.38,52.45,44.3,34.55,68.7,25.99 c15.67-5.5,31.26-3.51,46.44,2.21c5.57,2.1,10.89,4.97,16.15,7.81c4.84,2.61,5.14,5.08,1.61,9.3c-0.64,0.76-1.44,1.39-2.17,2.07 C125.4,52.36,120.07,57.35,114.59,62.48z"></path> <path class="st1" d="M923.89,121.6c13.99,11.24,27.58,22.14,41.79,33.55c-5.78,5.82-11.2,11.59-17.05,16.88 c-1.29,1.17-4.12,0.55-6.22,0.9c-10.7,1.76-19.11-2.06-26.77-9.54c-6.96-6.8-14.93-12.56-23.68-19.79 c3.27,15.34-9.7,19.56-15.98,28.04c-6.66,0.6-13.33,1.21-20.67,1.87c0-2.8,0-4.58,0-6.36c0-43.65,0.05-87.29-0.08-130.94 c-0.01-3.66,1.49-5.94,3.58-8.73c8.65-11.53,19.59-16.22,33.99-14.09c10.33,1.52,21.18,0.46,31.2,2.95 c43.27,10.74,44.91,56.31,26.79,78.67c-6.25,7.72-13.82,14.37-20.85,21.44C928.2,118.2,926.19,119.66,923.89,121.6z M900.91,110.43 c8.51-1.76,16.8-2.83,24.67-5.24c16.72-5.14,28.19-20.1,29.48-37.26c1.45-19.25-6.99-34.54-23.34-42.75 c-16.79-8.43-34.66-5.85-52.37-6.15c0,43.85,0,87.05,0,130.3c2.49,0,4.55,0,7,0c0-13.45,0-26.56,0-41.02 c2.6,1.52,4.47,2.32,5.99,3.55c14.13,11.4,28.36,22.68,42.17,34.45c4.25,3.62,8.4,3.64,14.39,2.96 C932.24,135.78,916.44,122.99,900.91,110.43z"></path> <path class="st1" d="M249.72,172.9c0.85-2.3,1.38-3.83,1.98-5.33c17.23-43.08,34.41-86.18,51.81-129.2c1.38-3.4,3.95-6.47,6.49-9.22 c5.2-5.62,10.72-10.95,16.17-16.33c4.28-4.23,7.48-3.62,9.58,1.79c17.74,45.56,35.43,91.14,53.25,136.66 c1.17,2.98,0.79,4.87-1.57,6.9c-2.52,2.16-5.13,4.41-6.99,7.11c-5.01,7.26-12.01,8.84-20.01,7.51c-1.68-0.28-3.86-1.81-4.49-3.32 c-2.88-6.91-5.43-13.97-7.81-21.07c-0.99-2.94-2.35-4.14-5.64-4.09c-14.49,0.2-28.98,0.12-43.46,0.05 c-2.37-0.01-4.13,0.21-4.84,2.98c-2.86,11.1-12.78,16.63-19.66,24.56c-0.48,0.55-1.46,0.94-2.21,0.94 C265.02,172.92,257.74,172.9,249.72,172.9z M381.57,149c-16.62-43.52-33.13-86.77-49.64-130.02c-0.39-0.02-0.79-0.04-1.18-0.06 c-17.09,43.36-34.17,86.72-51.27,130.11c5.23,1.74,8.07,0.39,9.61-4.75c1.85-6.2,4.3-12.24,6.87-18.18c0.6-1.38,2.72-2.97,4.16-2.98 c20.16-0.19,40.32-0.08,60.47-0.19c2.91-0.02,4.06,1.23,4.93,3.76c2.05,5.97,4.76,11.74,6.48,17.8 C373.44,149.56,376.22,150.67,381.57,149z"></path> <path class="st1" d="M560.71,102.2c0.01-14.66,3.56-28.48,10.95-41.05c13.6-23.1,31.6-41.26,58.38-48.54 c44.5-12.1,88.63,19.06,92.48,64.91c1.61,19.13-3.24,36.34-14.2,51.83c-12.78,18.05-27.59,34.06-49.04,41.84 c-46.17,16.76-95.92-15.21-98.25-63.49C560.95,105.86,560.82,104.03,560.71,102.2z M716.81,84.67 c0.02-38.61-29.47-68.67-67.55-68.87c-37.35-0.19-67.94,30.36-68.04,67.96c-0.1,39.02,29.17,68.95,67.63,69.14 C685.94,153.1,716.79,122.13,716.81,84.67z"></path> <path class="st1" d="M836.56,13.81c2.08-0.12,3.54-0.2,5.6-0.32c0.1,1.79,0.27,3.38,0.27,4.96c0.01,29.99,0.08,59.97-0.04,89.96 c-0.1,25.69-20.28,54.76-44.75,62.56c-34.1,10.87-65.19-9.28-66.34-44.8c-0.99-30.62-0.34-61.3-0.25-91.95 c0.01-1.88,1.17-4.11,2.48-5.55c3.92-4.3,8.01-8.5,12.4-12.32c1.98-1.72,4.83-2.45,8.48-4.2c0,3.73,0,5.68,0,7.63 c0,29.65-0.15,59.31,0.08,88.96c0.1,13.29,3.96,25.42,14.54,34.28c23.89,20,59.68,7.65,66.14-22.81c1.03-4.84,1.31-9.91,1.33-14.88 c0.12-28.49,0.06-56.97,0.06-85.46C836.56,18.07,836.56,16.26,836.56,13.81z"></path> <path class="st1" d="M189.85,12.37c0,46.67,0,91.58,0,137.1c19.73,0,38.96,0,59.89,0c-1.47,3.44-2.1,6.02-3.52,8.04 c-8.42,11.95-19.55,16.68-34.52,15.08c-13.01-1.39-26.29-0.29-39.45-0.29c-1.79,0-3.58,0-5.72,0c-0.11-2.15-0.26-3.76-0.27-5.37 c-0.01-43.65,0.03-87.3-0.08-130.94c-0.01-3.45,0.91-5.95,3.48-8.27c4.07-3.68,7.64-7.94,11.81-11.49 C183.45,14.55,186.32,13.94,189.85,12.37z"></path> <path class="st1" d="M762.3,13.84c1.83,0,3.39,0,5.56,0c0,2.22,0,4.18,0,6.13c0,27.98-0.13,55.97,0.11,83.95 c0.05,6.25,0.62,12.73,2.38,18.68c2.8,9.52,9.5,15.46,19.75,16.56c7.31,0.79,12.59-2.56,14.02-9.73c1.13-5.66,1.51-11.55,1.54-17.34 c0.16-25.32,0.12-50.64,0.01-75.96c-0.02-3.42,0.8-5.99,3.37-8.35c4.05-3.71,7.59-7.98,11.75-11.56c1.95-1.68,4.83-2.29,8.05-3.72 c0.18,3.07,0.34,4.53,0.34,5.99c0.01,28.98,0,57.97,0.01,86.95c0,8.78-1.08,17.33-5.84,24.95c-6.81,10.92-19.96,16.44-32.69,14.7 c-14.96-2.05-23.49-10.83-27.14-24.83c-1.12-4.29-1.45-8.89-1.47-13.35c-0.13-29.65-0.08-59.3-0.06-88.95 C761.97,16.68,762.17,15.38,762.3,13.84z"></path> <path class="st1" d="M203.19,137.48c15.41,0,30.04,0,45.14,0c0.11,1.79,0.21,3.32,0.34,5.32c-17.12,0-33.84,0-50.97,0 c0-42.78,0-85.64,0-128.88c1.65,0,3.35,0,5.48,0C203.19,55.01,203.19,95.93,203.19,137.48z"></path> <path class="st0" d="M544.68,149.36c-2.34,0-4.26,0-6.74,0c0-34.7,0-69.09,0-103.48c-0.42-0.17-0.84-0.35-1.27-0.52 c-17.64,23.99-35.27,47.97-53.4,72.62c-18.12-24.48-35.98-48.61-53.85-72.74c-0.34,0.05-0.67,0.11-1.01,0.16 c0,34.58,0,69.17,0,104.02c-2.7,0-4.63,0-6.87,0c0-42.14,0-84.17,0-127.58c20.95,28.47,41.19,55.97,61.83,84.01 c20.43-28.01,40.46-55.47,61.3-84.06C544.68,65.12,544.68,106.98,544.68,149.36z"></path> <path class="st0" d="M900.91,110.43c15.53,12.57,31.34,25.36,48,38.84c-5.99,0.68-10.14,0.66-14.39-2.96 c-13.82-11.77-28.05-23.05-42.17-34.45c-1.52-1.23-3.39-2.03-5.99-3.55c0,14.47,0,27.57,0,41.02c-2.45,0-4.51,0-7,0 c0-43.24,0-86.44,0-130.3c17.7,0.3,35.58-2.29,52.37,6.15c16.34,8.21,24.79,23.5,23.34,42.75c-1.29,17.16-12.76,32.12-29.48,37.26 C917.7,107.6,909.42,108.66,900.91,110.43z M886.66,102.83c13.25,0.34,26.24,1.09,38.84-4.11c13.94-5.75,22.33-18.59,22.29-35.16 c-0.04-15.47-8.4-28.31-22.08-33.71c-12.56-4.96-25.67-4.32-39.05-3.99C886.66,51.63,886.66,77,886.66,102.83z"></path> <path class="st0" d="M381.57,149c-5.35,1.68-8.13,0.56-9.57-4.51c-1.72-6.06-4.42-11.83-6.48-17.8c-0.87-2.53-2.02-3.77-4.93-3.76 c-20.16,0.11-40.32,0-60.47,0.19c-1.44,0.01-3.56,1.6-4.16,2.98c-2.57,5.94-5.02,11.98-6.87,18.18c-1.53,5.14-4.38,6.49-9.61,4.75 c17.1-43.39,34.18-86.75,51.27-130.11c0.39,0.02,0.79,0.04,1.18,0.06C348.44,62.23,364.96,105.48,381.57,149z M361.51,116.18 c-9.99-26.27-19.8-52.09-29.61-77.9c-0.39,0.01-0.79,0.02-1.18,0.02c-10.31,25.81-20.62,51.62-31.1,77.88 C320.64,116.18,340.72,116.18,361.51,116.18z"></path> <path class="st0" d="M716.81,84.67c-0.02,37.45-30.87,68.42-67.97,68.23c-38.46-0.2-67.73-30.12-67.63-69.14 c0.1-37.6,30.69-68.16,68.04-67.96C687.34,16,716.84,46.07,716.81,84.67z M649.2,145.74c33.87-0.17,59.7-26.87,59.45-61.45 c-0.25-35.26-26.14-61.78-60.02-61.48c-34.15,0.3-59.57,26.87-59.36,62.04C589.47,119.65,615.31,145.9,649.2,145.74z"></path> <path class="st1" d="M886.66,102.83c0-25.83,0-51.19,0-76.96c13.39-0.34,26.49-0.97,39.05,3.99c13.68,5.4,22.04,18.24,22.08,33.71 c0.04,16.57-8.35,29.4-22.29,35.16C912.91,103.92,899.91,103.17,886.66,102.83z M892.55,47.26c0,16.8,0,33.34,0,49.94 c5.67,0,11.02,0.45,16.26-0.1c10.16-1.07,16.17-7.3,17.6-17.39C929.32,59.25,914.44,44.78,892.55,47.26z"></path> <path class="st1" d="M361.51,116.18c-20.79,0-40.87,0-61.9,0c10.49-26.26,20.8-52.07,31.1-77.88c0.39-0.01,0.79-0.02,1.18-0.02 C341.71,64.1,351.52,89.91,361.51,116.18z M321.25,76.79c-4.85,12.14-9.12,22.82-13.53,33.86c9.08,0,17.36,0,26.22,0 C329.73,99.42,325.76,88.81,321.25,76.79z"></path> <path class="st1" d="M649.2,145.74c-33.89,0.17-59.73-26.09-59.94-60.89c-0.21-35.16,25.22-61.74,59.36-62.04 c33.88-0.3,59.77,26.21,60.02,61.48C708.9,118.86,683.07,145.57,649.2,145.74z M647.93,139.81c21.52,1.03,34.89-9.77,37.71-31.18 c0.75-5.69,0.21-11.64-0.4-17.4c-3.59-33.4-31.75-53.35-64.53-45.9c-9.55,2.17-16.44,7.64-20.71,16.47 C583.01,96.88,608.22,137.91,647.93,139.81z"></path> <path class="st0" d="M892.55,47.26c21.89-2.48,36.77,11.99,33.86,32.45c-1.43,10.09-7.44,16.32-17.6,17.39 c-5.24,0.55-10.59,0.1-16.26,0.1C892.55,80.6,892.55,64.06,892.55,47.26z"></path> <path class="st0" d="M321.25,76.79c4.51,12.03,8.49,22.64,12.69,33.86c-8.86,0-17.14,0-26.22,0 C312.13,99.6,316.4,88.92,321.25,76.79z"></path> <path class="st0" d="M647.93,139.81c-39.71-1.9-64.91-42.94-47.94-78.01c4.27-8.83,11.17-14.3,20.71-16.47 c32.79-7.45,60.94,12.5,64.53,45.9c0.62,5.76,1.16,11.71,0.4,17.4C682.81,130.04,669.45,140.85,647.93,139.81z"></path> </svg> 