<?xml version="1.0" encoding="utf-8"?>
<!-- Generator: Adobe Illustrator 24.1.3, SVG Export Plug-In . SVG Version: 6.00 Build 0)  -->
<svg version="1.1" id="Layer_1" xmlns="http://www.w3.org/2000/svg" xmlns:xlink="http://www.w3.org/1999/xlink" x="0px" y="0px"
	 viewBox="0 0 543.1 111.8" style="enable-background:new 0 0 543.1 111.8;" xml:space="preserve">
<path d="M539.9,71.3c-2.7-0.2-11.5-1.4-11.5-11.9l0-27.3l12.3,0l-0.1-2.5l-12.2,0c0-1.5,0-14.5,0-17.2h-2.5
	C515.5,27.6,505,29.6,505,29.6l0,2.5c0,0,3.8,0.1,4.4,0.1c3,0,2.9,1.7,2.8,4.2c-0.1,4-3.9,12.8-9.9,31.5c-0.7,2.3-2.5,3.5-5.5,3.6
	c-12.7,0.4-22.6-3.9-26.6-13.2c1.2-0.2,24.2-3,24.9-16.4c0.6-13.2-18.8-14.7-28.9-9.1c-9,5-15,12.1-20.3,23.4
	c-1.8,3.9-3.6,11.8-6.8,12.6c-2.6,0.7-5.3-0.8-9.2-9.4c-5.9-12.9-15.5-12.5-18.5-13.1c-1-0.2-1-0.8,0.4-1.7
	C413.1,43.9,430,32,430,32v-2.5h-18.3l-0.2,3.5c-0.1,1-0.6,5.2-2.3,7.2c-2.2,2.5-5.6,5.6-7.1,5.6c-1.3,0-1.6-0.7-1.6-1.6l0-12.3
	L400.6,0l-20.9,0v2.5c0,0,6.3,0,6.1,7.5l-0.1,23.5l-0.6,27.1c0,4.6-3.6,8-8.4,8.4l-5.3,0c-3-3.2-7.4-6.5-15.3-10.9
	c-6.8-3.8-15.2-10.2-14.5-16.2c0.7-6,5.7-8.1,9.5-7.7c7.6,0.8,10.9,8.3,15,20.1h2.5V34.5c-6-2.8-14.8-5.2-22.2-5
	c-3.5,0.1-8.8,0.6-13.5,3.8c-7.9,5.3-10.5,14.4-6.4,21.8c2.9,5.2,7.7,8.2,7.7,12.3c0,2.2-1.9,3.9-4.2,3.9l-8.1,0
	c-9.1,0-11.9-13.5-12.8-17c-1.1-4.2-4.1-13.6-10.8-19c-5.3-4.2-17.1-9.6-40.3,0v18.7h2.5c6.9-16.1,14.2-20.1,19.6-20.1
	c4.2,0,7.5,3,7.4,9c-0.1,6-8.4,10.6-15.6,13.6c-7.9,3.3-15.7,7.8-18.8,10.8c-8.5-28.9-33.9-33.9-44.3-35.4l0.1-31.9l-20.9,0v2.5
	c0,0,6.3,0,6.1,7.5L194,33.6L193.4,63c0,4.6-3.6,8-8.4,8.4c-3.6,0.3-5.9-0.3-7.9-1.4c-5.3-3-6.2-12.6-8.1-22.6
	c-1.9-10-8.9-15-15.7-15.5c-6.5-0.5-11.1,2.7-12.2,3.8l0-3.7l-20.9,0v2.5c0,0,6.3,0,6.1,7.5l0,21.1c0,4.6-4,8.4-8.6,8.4H113
	c-4.6,0-8.6-3.7-8.6-8.4l0-30.9l-20.9,0v2.5c0,0,6.3,0,6.1,7.5v23.2c0,3.4-2.5,6.2-5.5,6.2c-3,0-5.5-2.8-5.5-6.2V32H61.4v2.5
	c0,0,6.6,0,6.4,7.5c-0.1,5.7-3.2,10.6-8.8,20.3c-2,3.4-4.6,8.4-4.9,9c-3.1-4-7.4-7.8-17.4-13.4c-6.8-3.8-15.2-10.2-14.5-16.2
	c0.7-6,5.7-8.1,9.5-7.7c7.6,0.8,10.9,8.3,15,20.1h2.5V34.5c-6-2.8-14.8-5.2-22.2-5c-3.5,0.1-8.8,0.6-13.5,3.8
	C5.5,38.6,2.9,47.7,7,55.1c2.9,5.2,7.7,8.2,7.7,12.3c0,2.2-1.9,3.9-4.2,3.9H0v39.3h26.4c10.1,0,22.1-1.8,27.6-12.3
	c1,1.2,7.2,11.1,19.1,13.1c12.4,2,22.3-5.4,25.1-10.6c1.1,1.7,6.1,9.8,19,9.8H187c13.5,0,18-7.4,19.4-9.9c3.3,5,11.8,12.7,24.2,10.7
	c11.9-1.9,16.5-11.5,17.5-13.1c0.9,1.4,7.4,11.1,19.3,13.1c12.4,2,22.1-5.4,24.9-10.6c1.1,1.7,6.2,9.8,19.1,9.8h36.3
	c8.4,0,17.1-0.9,23.1-7.4v0c0,0.2,0,3.2,0,3.2c0,1.7,0.7,4.1,4.1,4.1h106.1c10.4,0,20.3-4,23.8-17.2c1.9,3.1,9.7,17.2,31.2,17.2h6.9
	V71.4C543.1,71.4,540.6,71.3,539.9,71.3z M153.6,65.2c0,3.4-2.5,6.2-5.5,6.2c-3,0-5.5-2.8-5.5-6.2V43.1c0-3.4,2.5-6.2,5.5-6.2
	c3,0,5.5,2.8,5.5,6.2V65.2z M225.4,68.9c-10.4,0-17.3-9.8-16.5-31.9c13.7,2.6,24,11.4,24,23C232.9,66.5,229.5,68.9,225.4,68.9z
	 M276.6,71.4c-2.2,0.2-3.5-0.9-3.7-3.2c-0.5-4.6,3.3-8,11.1-11.6C283.3,66.8,280.2,71,276.6,71.4z M416.1,69c0,0-11.2-0.2-14.6-6.9
	c-2.3-4.5-0.5-8.6,1.9-10.1c2.4-1.6,6.9-1.9,10.1,3C416.5,59.5,416.1,69,416.1,69z M473.7,33.3c3.6-1.4,9.1,0.3,8.4,6.9
	c-0.8,8.5-12.1,13.6-13.2,13.9C467.9,52.6,463.7,37.2,473.7,33.3z"/>
</svg>
